<svg width="72" height="72" viewBox="0 0 72 72" fill="none" xmlns="http://www.w3.org/2000/svg">
<circle cx="36" cy="36" r="36" fill="#B5EBCD"/>
<path fill-rule="evenodd" clip-rule="evenodd" d="M24.6562 21.7314C23.6949 21.9226 22.8514 22.6689 22.5122 23.6285C22.3917 23.9696 22.3775 24.1864 22.3527 26.0719C22.3355 27.377 22.3515 28.3347 22.3961 28.6657C22.4886 29.3529 22.7473 29.9014 23.1841 30.3362C23.8163 30.9655 24.4874 31.2133 25.5591 31.2133H26.1768L26.196 33.3765C26.2146 35.4752 26.2195 35.5484 26.3605 35.8345C27.0288 37.1907 28.844 37.3193 29.6851 36.0698C29.9705 35.6457 30.0287 35.1955 30.0287 33.4128C30.0287 31.9189 30.033 31.8667 30.1742 31.6554C30.5566 31.0831 31.3596 31.0831 31.7419 31.6554C31.8668 31.8423 31.8874 31.9566 31.8874 32.4608C31.8874 33.5 32.0278 33.989 32.4553 34.4395C33.4249 35.4609 35.1066 35.1039 35.6139 33.7688C35.7136 33.5066 35.7331 33.2717 35.7331 32.3342V31.2133H40.2061C45.1083 31.2133 45.091 31.2145 45.7602 30.83C46.1479 30.6072 46.6147 30.1363 46.8425 29.7383C47.0777 29.327 47.2038 28.717 47.2049 27.9839L47.2058 27.3502L47.809 27.3818C48.4686 27.4163 48.7227 27.5166 48.9616 27.8369C49.0878 28.0059 49.0978 28.1098 49.115 29.4392C49.1327 30.8124 49.1284 30.8705 48.9868 31.1477C48.9062 31.3056 48.7537 31.484 48.6479 31.5444C48.5422 31.6047 46.0206 32.3472 43.0444 33.1944C40.0682 34.0415 37.482 34.8111 37.2972 34.9047C37.1124 34.9982 36.8128 35.2223 36.6314 35.4027C35.9682 36.0625 35.7356 36.7166 35.734 37.9271L35.7331 38.6482H36.6891H37.6452L37.6665 37.8835C37.6894 37.0642 37.7407 36.9211 38.1085 36.6502C38.1944 36.5869 40.7019 35.8415 43.6807 34.9937C46.6594 34.146 49.2508 33.3777 49.4394 33.2864C50.2037 32.9165 50.8474 32.0264 50.9851 31.1492C51.0644 30.6437 51.0686 28.591 50.9915 27.9931C50.8876 27.1873 50.4016 26.4108 49.7175 25.9577C49.2389 25.6407 48.7066 25.509 47.9041 25.509H47.2058L47.2049 24.8841C47.2043 24.5404 47.1603 24.0742 47.107 23.8482C46.8914 22.9334 46.1565 22.1338 45.2281 21.8037C44.9568 21.7073 44.0451 21.697 34.9319 21.6871C29.4327 21.6811 24.8086 21.7011 24.6562 21.7314Z" fill="#2C2B46"/>
<path opacity="0.4" fill-rule="evenodd" clip-rule="evenodd" d="M32.2323 40.7269C31.9888 40.8329 31.8861 41.0918 31.89 41.5899C31.8962 42.3863 31.9185 42.427 32.8737 43.3841L33.7463 44.2584L33.1919 46.9813C32.6941 49.4266 32.6375 49.7761 32.6375 50.4092C32.6376 51.0079 32.6639 51.1916 32.8119 51.627C33.0969 52.4659 33.5482 53.1169 34.1819 53.6037C34.9762 54.2138 35.6697 54.4465 36.6942 54.4465C37.7187 54.4465 38.4122 54.2138 39.2065 53.6037C39.8461 53.1124 40.3212 52.4303 40.5835 51.627C40.7228 51.2003 40.7509 50.9959 40.7507 50.4092C40.7506 49.7765 40.6938 49.4251 40.1967 46.9829L39.6427 44.2616L40.5399 43.3566L41.4371 42.4517V41.8617C41.4371 41.2132 41.3475 40.9064 41.1092 40.7395C40.9748 40.6454 40.5369 40.6352 36.6959 40.6375C33.252 40.6395 32.3936 40.6567 32.2323 40.7269Z" fill="#2C2B46"/>
</svg>
