<svg width="72" height="72" viewBox="0 0 72 72" fill="none" xmlns="http://www.w3.org/2000/svg">
<circle cx="36" cy="36" r="36" fill="#CBEBA4"/>
<path fill-rule="evenodd" clip-rule="evenodd" d="M19.3143 23.1309C18.9062 23.2578 18.3594 23.7659 18.1629 24.2011C18.017 24.5239 18.0099 24.6033 18.0099 25.9202C18.0099 27.2371 18.017 27.3165 18.1629 27.6393C18.3717 28.1016 18.9069 28.5853 19.3532 28.7151C19.6455 28.8001 20.2732 28.8111 23.9222 28.7958L28.1524 28.7779L28.4813 28.6044C28.8909 28.3882 29.2986 27.9326 29.4315 27.5428C29.5774 27.1143 29.5774 24.7261 29.4315 24.2977C29.2986 23.9078 28.8909 23.4522 28.4813 23.2361L28.1524 23.0625L23.8836 23.05C20.3036 23.0395 19.5663 23.0526 19.3143 23.1309ZM45.9543 23.5791C45.5458 23.7079 44.9987 24.217 44.8029 24.6506L44.65 24.989V29.2596V33.5301L44.8029 33.8686C44.8973 34.0777 45.0892 34.3291 45.305 34.5264C45.8282 35.0047 46.0578 35.0531 47.6834 35.0278C48.9876 35.0076 49.0219 35.0036 49.3439 34.8336C49.5248 34.7381 49.7899 34.527 49.9329 34.3645C50.4099 33.8223 50.3952 33.9846 50.3952 29.2596C50.3952 24.5346 50.4099 24.6968 49.9329 24.1547C49.7899 23.9922 49.5248 23.781 49.3439 23.6856C49.019 23.5141 48.9983 23.5118 47.6349 23.4982C46.5662 23.4875 46.187 23.5057 45.9543 23.5791ZM40.8305 24.4878C37.0993 24.8876 33.978 27.6247 33.0922 31.2738C32.8446 32.2939 32.7984 33.366 32.8193 37.608L32.8385 41.4932L37.6369 41.5097L42.4353 41.5262V37.8011V34.076H42.6269H42.8185L42.7714 33.6746C42.7099 33.1516 42.7099 25.3676 42.7714 24.8445L42.8185 24.4432L41.9369 24.4534C41.4519 24.4591 40.9541 24.4746 40.8305 24.4878ZM20.5689 39.3094C20.4228 39.3625 20.0039 39.5351 19.6381 39.6927L18.9728 39.9795L18.9538 42.1813C18.9274 45.2459 19.0511 46.3607 19.5933 47.9422C20.611 50.9103 22.7975 53.3838 25.5847 54.7201C26.4777 55.1481 26.8804 55.2961 27.7955 55.5322C31.0354 56.3683 34.4477 55.7763 37.2678 53.8888C40.4786 51.7398 42.4353 48.1069 42.4353 44.2946V43.4519H37.6267H32.8181L32.7941 44.1102C32.7663 44.8764 32.6387 45.2091 32.206 45.6444C31.79 46.0629 31.3389 46.2453 30.7201 46.2453C29.8454 46.2453 29.1926 45.8431 28.8117 45.0695L28.6018 44.6431L28.5697 42.3024L28.5376 39.9617L27.7193 39.6167C26.5331 39.1166 26.4452 39.1145 25.4899 39.5633C24.4567 40.0488 23.9297 40.1602 23.2865 40.029C23.013 39.9732 22.5255 39.7923 22.1158 39.5946C21.338 39.2193 20.9917 39.1554 20.5689 39.3094Z" fill="#2C2B46"/>
<path opacity="0.4" fill-rule="evenodd" clip-rule="evenodd" d="M18.941 34.2297C18.941 36.2291 18.9564 37.8649 18.9752 37.8649C18.994 37.8649 19.1167 37.8187 19.248 37.7622C19.8929 37.4845 20.4217 37.3417 20.931 37.3078C21.4087 37.276 21.5388 37.2924 21.9757 37.4398C22.2502 37.5324 22.7122 37.7276 23.0025 37.8737C23.2979 38.0223 23.6294 38.1417 23.7556 38.145C23.9056 38.149 24.2382 38.0288 24.7509 37.7855C25.1743 37.5846 25.6508 37.3909 25.8097 37.3552C26.4631 37.208 27.3244 37.3345 28.1446 37.6978C28.352 37.7897 28.5326 37.8649 28.5458 37.8649C28.5591 37.8649 28.57 36.2361 28.57 34.2454V30.6257L28.2511 30.6837C27.8505 30.7565 19.2063 30.7244 19.0534 30.6495C18.9471 30.5974 18.941 30.7894 18.941 34.2297Z" fill="#2C2B46"/>
</svg>
