<svg width="72" height="72" viewBox="0 0 72 72" fill="none" xmlns="http://www.w3.org/2000/svg">
<circle cx="36" cy="36" r="36" fill="#AFC6FF"/>
<path fill-rule="evenodd" clip-rule="evenodd" d="M32.9262 24.4161C32.8079 24.4744 32.6451 24.6255 32.5646 24.7518C32.484 24.8781 30.4769 29.202 28.1044 34.3605L23.7908 43.7395L23.3306 43.6587C21.7956 43.3891 20.2918 43.8815 19.1597 45.0244C18.4792 45.7113 18.0632 46.4895 17.8685 47.4392C17.2411 50.5013 19.7276 53.377 22.8371 53.1855C24.0648 53.11 25.06 52.6563 25.9572 51.7632C26.4507 51.2719 26.5863 51.0889 26.8394 50.5726C27.4937 49.238 27.5557 48.172 27.062 46.7433L26.8595 46.1571L30.8453 37.3995C33.0375 32.5828 34.883 28.4685 34.9464 28.2566C35.1272 27.6524 35.1026 26.6519 34.8923 26.0585C34.4104 24.6985 33.6471 24.0608 32.9262 24.4161ZM41.404 24.4139C41.0701 24.5786 40.9086 24.8578 40.9086 25.2704C40.9086 25.5329 40.9454 25.6752 41.0518 25.8244C41.3257 26.2086 41.4602 26.2337 43.2453 26.2337H44.8565V27.197V28.1603H43.2453C41.4602 28.1603 41.3257 28.1854 41.0518 28.5695C40.852 28.8498 40.852 29.3973 41.0518 29.6776C41.3257 30.0617 41.4602 30.0868 43.2453 30.0868H44.8565V31.0501V32.0134H43.2453C41.4602 32.0134 41.3257 32.0385 41.0518 32.4227C40.852 32.7029 40.852 33.2504 41.0518 33.5307C41.3257 33.9148 41.4602 33.94 43.2453 33.94H44.8565V34.9032V35.8665H43.2453C41.4602 35.8665 41.3257 35.8916 41.0518 36.2758C40.9454 36.425 40.9086 36.5673 40.9086 36.8298C40.9086 37.0923 40.9454 37.2346 41.0518 37.3838C41.3257 37.768 41.4602 37.7931 43.2453 37.7931H44.8565V38.7564V39.7196H43.2453C41.4602 39.7196 41.3257 39.7447 41.0518 40.1289C40.852 40.4092 40.852 40.9567 41.0518 41.2369C41.3257 41.6211 41.4602 41.6462 43.2453 41.6462H44.8565V42.6095V43.5728H43.2453C41.4602 43.5728 41.3257 43.5979 41.0518 43.982C40.852 44.2623 40.852 44.8098 41.0518 45.0901C41.3257 45.4742 41.4602 45.4993 43.2453 45.4993H44.8565V46.4626V47.4259H43.2453C41.4602 47.4259 41.3257 47.451 41.0518 47.8352C40.852 48.1154 40.852 48.6629 41.0518 48.9432C41.3257 49.3273 41.4602 49.3525 43.2453 49.3525H44.8565V50.3157V51.279H43.2453C41.4602 51.279 41.3257 51.3041 41.0518 51.6883C40.852 51.9685 40.852 52.5161 41.0518 52.7963C41.347 53.2103 41.3039 53.2056 44.7772 53.2056C46.6465 53.2056 48.0602 53.179 48.2657 53.14C49.429 52.9193 50.3816 51.9484 50.5712 50.7901C50.6549 50.2789 50.6549 27.2338 50.5712 26.7226C50.3816 25.5643 49.429 24.5934 48.2657 24.3727C48.0594 24.3335 46.6501 24.3077 44.7675 24.3086C41.9948 24.3099 41.5893 24.3226 41.404 24.4139ZM23.1021 45.5649C24.6059 45.8502 25.6477 47.3134 25.4144 48.8124C25.1719 50.3711 23.6779 51.4798 22.1593 51.228C20.9914 51.0344 20.0772 50.2031 19.7952 49.0782C19.666 48.5626 19.666 48.2157 19.7952 47.7002C20.1652 46.2246 21.6217 45.284 23.1021 45.5649Z" fill="#2C2B46"/>
<path opacity="0.4" fill-rule="evenodd" clip-rule="evenodd" d="M30.4577 42.9021C29.9036 44.1234 29.4502 45.1614 29.4502 45.2087C29.4502 45.256 29.5369 45.4779 29.6428 45.7018C29.7487 45.9258 29.8353 46.1401 29.8353 46.1782C29.8354 46.2162 29.7626 46.4266 29.6736 46.6457C28.9601 48.4023 29.3655 50.3917 30.7144 51.7535C31.713 52.7617 33.018 53.2697 34.3918 53.1851C35.6196 53.1095 36.6147 52.6559 37.5119 51.7628C38.0051 51.2718 38.1413 51.0882 38.3945 50.5722C38.8094 49.7266 38.915 49.2838 38.915 48.3887C38.915 47.4937 38.8094 47.0509 38.3945 46.2053C38.1413 45.6893 38.0051 45.5057 37.5119 45.0147C36.8732 44.3789 36.2876 44.0246 35.4527 43.7687C34.8546 43.5854 33.978 43.5363 33.3855 43.6529L32.9234 43.7439L32.2402 42.2614C31.8644 41.446 31.5363 40.757 31.511 40.7303C31.4858 40.7036 31.0118 41.6809 30.4577 42.9021ZM34.6569 45.5645C36.1606 45.8497 37.2024 47.313 36.9691 48.8119C36.7761 50.0525 35.8106 51.02 34.5586 51.2276C33.436 51.4136 32.1815 50.7992 31.6202 49.7882C31.4204 49.4286 31.2476 48.7793 31.2476 48.3887C31.2476 48.2343 31.2937 47.9242 31.35 47.6997C31.7199 46.2241 33.1764 45.2836 34.6569 45.5645Z" fill="#2C2B46"/>
<path opacity="0.4" fill-rule="evenodd" clip-rule="evenodd" d="M22.9316 24.4353C22.2697 24.7632 21.6254 26.1375 21.6221 27.2285C21.6198 28.0202 21.7463 28.3567 23.4884 32.1935C24.4135 34.231 25.1874 35.9178 25.2081 35.9419C25.2378 35.9767 27.0741 32.0632 27.2408 31.6098C27.2686 31.5343 26.7657 30.3712 25.7554 28.1741C24.9153 26.3472 24.1757 24.7763 24.1118 24.6832C23.99 24.5057 23.5788 24.3065 23.3346 24.3066C23.2559 24.3066 23.0745 24.3646 22.9316 24.4353Z" fill="#2C2B46"/>
</svg>
