<svg width="73" height="72" viewBox="0 0 73 72" fill="none" xmlns="http://www.w3.org/2000/svg">
<circle cx="36.5" cy="36" r="36" fill="#FFBC99"/>
<path opacity="0.4" fill-rule="evenodd" clip-rule="evenodd" d="M33.4962 42.5593C33.0504 42.7949 33.0261 42.8821 32.9864 44.3863C32.9473 45.8703 32.9056 46.0565 32.522 46.4609C32.2625 46.7345 31.7482 46.9803 31.4338 46.9811C30.9296 46.9824 30.4744 47.3338 30.3893 47.7875C30.3271 48.1192 30.5116 48.55 30.7998 48.7458C31.2244 49.0344 32.2088 48.9255 33.0219 48.5001C33.4954 48.2523 34.1781 47.5845 34.4527 47.1005C34.8166 46.4588 34.9124 45.9154 34.9124 44.4924C34.9124 43.36 34.8999 43.2153 34.7804 42.9685C34.6845 42.7705 34.5737 42.6596 34.3757 42.5637C34.0404 42.4015 33.7972 42.4003 33.4962 42.5593ZM36.4892 42.5769C36.0001 42.8573 36.0019 42.8465 36.002 45.667C36.0021 48.4552 36.0034 48.4645 36.4439 48.7588C36.9003 49.0637 37.5636 48.885 37.8121 48.3903C37.9131 48.1894 37.9242 47.9195 37.9243 45.667C37.9244 43.3552 37.9154 43.1499 37.8056 42.9434C37.6612 42.672 37.2673 42.4338 36.9631 42.4338C36.8398 42.4338 36.6265 42.4982 36.4892 42.5769ZM39.5458 42.565C39.3536 42.6601 39.2391 42.7759 39.1453 42.9697C39.0265 43.215 39.0138 43.3618 39.0138 44.4924C39.0138 45.9154 39.1097 46.4588 39.4736 47.1005C39.7481 47.5845 40.4309 48.2523 40.9043 48.5001C41.7175 48.9255 42.7019 49.0344 43.1265 48.7458C43.4147 48.55 43.5992 48.1192 43.5369 47.7875C43.4518 47.3338 42.9967 46.9824 42.4925 46.9811C42.178 46.9803 41.6638 46.7345 41.4043 46.4609C41.0207 46.0565 40.9789 45.8703 40.9398 44.3863C40.9 42.8743 40.876 42.7907 40.4165 42.5562C40.1039 42.3967 39.8812 42.399 39.5458 42.565Z" fill="#2C2B46"/>
<path fill-rule="evenodd" clip-rule="evenodd" d="M23.7089 24.0041C23.5212 24.0495 23.1207 24.209 22.8189 24.3586C21.8613 24.8331 21.1363 25.6827 20.7401 26.7944L20.5917 27.2109L20.5722 32.4422C20.5502 38.3294 20.5416 38.1987 21.0148 39.1627C21.5121 40.1761 22.5154 41.0011 23.6336 41.3162C23.8424 41.375 24.3845 41.43 24.9634 41.4512L25.9407 41.487L25.9417 40.0845C25.9427 38.4872 25.9993 38.1319 26.3745 37.3684C26.7204 36.6646 27.4562 35.9381 28.1837 35.582C29.1529 35.1075 28.7642 35.1276 36.9633 35.1276C45.1623 35.1276 44.7736 35.1075 45.7429 35.582C46.4703 35.9381 47.2062 36.6646 47.552 37.3684C47.9272 38.1319 47.9838 38.4872 47.9849 40.0845L47.9858 41.487L48.9631 41.4512C49.542 41.43 50.0841 41.375 50.2929 41.3162C51.4111 41.0011 52.4144 40.1761 52.9117 39.1627C53.3849 38.1987 53.3763 38.3294 53.3543 32.4422L53.3348 27.2109L53.1864 26.7944C52.7786 25.6501 52.0567 24.819 51.0512 24.3366C50.7222 24.1787 50.3002 24.0183 50.1135 23.9801C49.58 23.8709 24.1637 23.8941 23.7089 24.0041ZM43.9241 27.7276C44.3817 28.0697 44.5094 28.5634 44.2546 29.0053C44.0082 29.4326 43.8094 29.4935 42.7309 29.4722C41.9183 29.4562 41.7803 29.4378 41.6316 29.3257C41.1764 28.9828 41.1024 28.3713 41.4607 27.9157C41.7004 27.611 41.9064 27.5619 42.8706 27.5795C43.6414 27.5935 43.7687 27.6114 43.9241 27.7276ZM48.4972 27.6757C48.6199 27.7373 48.7882 27.8886 48.8714 28.012C49.0775 28.3179 49.0489 28.8882 48.8149 29.1387C48.5248 29.4492 48.3775 29.4859 47.4217 29.4859C46.6022 29.4859 46.5134 29.4743 46.3131 29.3405C45.6984 28.9299 45.7525 28.0187 46.4109 27.6928C46.7716 27.5143 48.1533 27.5029 48.4972 27.6757ZM29.6006 37.1172C28.9743 37.2403 28.3083 37.7698 28.043 38.3558C27.9059 38.6587 27.8938 38.7819 27.8748 40.0759L27.8543 41.4698H36.9633H46.0722L46.0517 40.0759C46.0327 38.7819 46.0207 38.6587 45.8835 38.3558C45.7145 37.9825 45.2539 37.5045 44.8762 37.3107C44.7344 37.2379 44.4637 37.1489 44.2747 37.1131C43.8494 37.0325 30.0124 37.0363 29.6006 37.1172Z" fill="#2C2B46"/>
</svg>
