<svg width="72" height="72" viewBox="0 0 72 72" fill="none" xmlns="http://www.w3.org/2000/svg">
<circle cx="36" cy="36" r="36" fill="#B1E5FC"/>
<path opacity="0.4" fill-rule="evenodd" clip-rule="evenodd" d="M34.498 28.369C34.0414 28.4833 33.6996 28.6784 33.3553 29.0214C33.0008 29.3747 32.7864 29.7637 32.6877 30.2332C32.6511 30.407 32.6272 31.1515 32.6272 32.1175V33.7145H41.5744H50.5216V32.1175C50.5216 31.1321 50.4981 30.4105 50.4601 30.2332C50.2602 29.2992 49.5092 28.5478 48.5804 28.3524C48.1457 28.261 34.8672 28.2766 34.498 28.369ZM43.5822 30.299C43.8228 30.4218 44.0145 30.7342 44.0145 31.0033C44.0145 31.4177 43.6137 31.8166 43.1972 31.8166C42.945 31.8166 42.6099 31.6058 42.4906 31.3719C42.2904 30.9793 42.4161 30.5508 42.7995 30.3187C43.0591 30.1615 43.3007 30.1554 43.5822 30.299ZM46.8357 30.299C47.0763 30.4218 47.2681 30.7342 47.2681 31.0033C47.2681 31.4177 46.8672 31.8166 46.4507 31.8166C46.1985 31.8166 45.8635 31.6058 45.7442 31.3719C45.5439 30.9793 45.6696 30.5508 46.053 30.3187C46.3127 30.1615 46.5542 30.1554 46.8357 30.299Z" fill="#2C2B46"/>
<path fill-rule="evenodd" clip-rule="evenodd" d="M24.6304 22.8374C24.1738 22.9517 23.8321 23.1468 23.4878 23.4898C23.1332 23.8431 22.9188 24.2321 22.8201 24.7016C22.779 24.897 22.7596 26.1942 22.7596 28.755V32.521H26.8808H31.0019V31.4342C31.0019 30.2326 31.0676 29.7643 31.3211 29.158C31.7135 28.2194 32.5381 27.3936 33.4843 26.9917C34.2022 26.6867 34.4479 26.6646 37.1271 26.6646H39.5695V25.8268C39.5695 25.366 39.5419 24.8597 39.508 24.7016C39.3082 23.7676 38.5572 23.0162 37.6283 22.8208C37.1944 22.7295 24.9993 22.7452 24.6304 22.8374ZM27.2075 27.2076C27.3453 27.2779 27.4605 27.393 27.5308 27.5308C27.6308 27.727 27.6399 27.849 27.6399 28.9963C27.6399 30.1436 27.6308 30.2656 27.5308 30.4618C27.4074 30.7037 27.0953 30.8942 26.8225 30.8942C26.5703 30.8942 26.2353 30.6833 26.116 30.4495C26.0235 30.2681 26.0134 30.1206 26.0154 28.9849C26.018 27.5538 26.0398 27.4603 26.4249 27.2272C26.6845 27.0701 26.9261 27.064 27.2075 27.2076ZM22.7596 41.2215C22.7596 46.2899 22.7771 48.3767 22.8211 48.5826C23.0205 49.5142 23.7693 50.263 24.7009 50.4623C24.8978 50.5045 26.0619 50.5238 28.4011 50.5238H31.8139L31.6255 50.2292C31.4324 49.9273 31.2722 49.5662 31.1189 49.0869C31.0416 48.845 31.0304 48.0246 31.0157 41.4817L30.9993 34.1477H26.8795H22.7596V41.2215ZM32.6287 41.818C32.6287 46.4417 32.6463 48.3775 32.6902 48.5826C32.8896 49.5142 33.6383 50.263 34.5699 50.4623C34.9731 50.5486 48.1724 50.5495 48.5819 50.4633C49.5021 50.2695 50.2706 49.5012 50.4629 48.5826C50.505 48.3814 50.5231 46.3539 50.5231 41.818V35.3407H41.5759H32.6287V41.818ZM27.2075 35.8837C27.3453 35.9539 27.4605 36.0691 27.5308 36.2069C27.6352 36.4115 27.6399 36.5227 27.6399 38.7569C27.6399 40.9911 27.6352 41.1023 27.5308 41.3069C27.4074 41.5488 27.0953 41.7393 26.8225 41.7393C26.5703 41.7393 26.2353 41.5284 26.116 41.2945C26.0196 41.1056 26.0133 40.9459 26.0154 38.7455C26.018 36.1035 26.0107 36.154 26.4249 35.9033C26.6845 35.7461 26.9261 35.7401 27.2075 35.8837ZM42.8502 37.1266C44.657 37.5978 46.0731 39.0223 46.5731 40.8717C46.6763 41.253 46.6978 41.4684 46.6978 42.1189C46.6978 42.7693 46.6763 42.9848 46.5731 43.3661C46.0735 45.2142 44.6769 46.6207 42.8502 47.1156C42.2082 47.2896 40.9751 47.2892 40.3287 47.115C38.4759 46.6155 37.083 45.2297 36.5764 43.3815C36.4097 42.7731 36.4097 41.4647 36.5764 40.8563C37.1367 38.8122 38.7831 37.3441 40.8981 37.0027C41.2739 36.942 42.4221 37.0149 42.8502 37.1266ZM40.8167 38.6785C39.8433 38.8876 38.8814 39.643 38.4381 40.5463C38.1835 41.0652 38.0531 41.5979 38.0531 42.1189C38.0531 43.4153 38.844 44.6878 40.0033 45.2566C41.0475 45.769 42.1043 45.769 43.1484 45.2566C44.0637 44.8075 44.8109 43.8467 45.0193 42.8509C45.1851 42.0579 45.0851 41.3033 44.7136 40.5463C44.3963 39.8996 43.7952 39.2985 43.1484 38.9811C42.3943 38.611 41.6068 38.5089 40.8167 38.6785Z" fill="#2C2B46"/>
</svg>
