<svg width="72" height="72" viewBox="0 0 72 72" fill="none" xmlns="http://www.w3.org/2000/svg">
<circle cx="36" cy="36" r="36" fill="#CABDFF"/>
<path opacity="0.4" fill-rule="evenodd" clip-rule="evenodd" d="M47.325 23.1299L45.0716 23.8779V28.6814V33.4849L47.3199 34.2323C49.2352 34.8689 49.6056 34.9755 49.8208 34.9512C50.1204 34.9174 50.322 34.7803 50.4656 34.5125C50.5657 34.3258 50.5705 34.0575 50.5705 28.6694V23.0221L50.443 22.8347C50.3728 22.7316 50.2495 22.5984 50.1688 22.5387C49.8549 22.3063 49.7251 22.3332 47.325 23.1299Z" fill="#2C2B46"/>
<path fill-rule="evenodd" clip-rule="evenodd" d="M27.5591 21.6753C26.9626 21.7797 26.0481 22.0832 25.5037 22.3574C24.1778 23.025 22.9188 24.2802 22.267 25.5841C20.9455 28.2282 21.4915 31.5043 23.6074 33.6267C24.8739 34.8972 26.4599 35.626 28.2466 35.7587C29.2655 35.8344 28.6305 35.9326 39.4018 34.0338C41.4441 33.6738 43.1724 33.366 43.2426 33.3497L43.3702 33.3202V28.6727C43.3702 26.1165 43.3499 24.0252 43.3252 24.0252C43.3005 24.0252 40.2456 23.4872 36.5365 22.8298C30.0292 21.6764 29.7621 21.6337 28.9141 21.6132C28.3066 21.5984 27.8884 21.6176 27.5591 21.6753ZM29.2864 26.0705C29.778 26.1601 30.3101 26.442 30.6712 26.8044C31.7221 27.8592 31.7243 29.5009 30.6761 30.5491C29.6219 31.6032 27.9796 31.6032 26.9254 30.5491C26.2529 29.8766 26.0034 28.9897 26.2237 28.0551C26.4515 27.0888 27.2512 26.3061 28.2339 26.088C28.6353 25.9989 28.8713 25.995 29.2864 26.0705ZM28.4949 27.7689C28.2823 27.8325 28.0139 28.0864 27.9151 28.3176C27.6571 28.9206 28.1297 29.634 28.7889 29.6366C29.4024 29.6389 29.8545 29.0861 29.7396 28.474C29.6891 28.2047 29.356 27.8413 29.0928 27.7681C28.8514 27.7011 28.7209 27.7012 28.4949 27.7689ZM31.4652 37.1454L28.489 37.6686L28.5071 37.8056C28.6025 38.5274 29.5124 43.5666 29.5874 43.7889C29.7372 44.2328 30.0416 44.6966 30.4042 45.0336C30.7631 45.3671 31.4086 45.7091 31.796 45.771C32.0715 45.815 32.0642 45.8033 32.256 46.5028C32.6741 48.0272 33.8867 49.3869 35.3641 49.9879C36.1216 50.296 36.4635 50.3559 37.446 50.3523C38.2623 50.3493 38.4029 50.3338 38.8509 50.1972C40.7568 49.6162 42.1112 48.2136 42.6424 46.2709C42.754 45.8629 42.7681 45.6366 42.7983 43.7534C42.8312 41.7093 42.8332 41.6816 42.9645 41.4704C43.1406 41.1872 43.3975 40.9981 43.7255 40.9104C44.2079 40.7814 44.7365 41.0095 45.023 41.4704L45.1559 41.6842L45.1842 45.7703L45.2126 49.8565L45.3679 50.06C45.5506 50.2996 45.8405 50.4119 46.1639 50.3685C46.4435 50.331 46.6408 50.1911 46.78 49.9316C46.8793 49.7465 46.885 49.5212 46.885 45.7554C46.885 43.0683 46.8646 41.6771 46.8223 41.4744C46.7103 40.9376 46.4471 40.4705 46.0115 40.0356C45.2773 39.3028 44.3387 39.0217 43.3801 39.2476C42.3929 39.4804 41.6133 40.1704 41.258 41.1259C41.1425 41.4368 41.1327 41.5875 41.1007 43.5549C41.0685 45.5304 41.0591 45.6756 40.9378 46.0493C40.5568 47.2238 39.6898 48.1071 38.5104 48.5224C37.9956 48.7036 37.1616 48.7291 36.5774 48.5813C35.2431 48.2439 34.2642 47.3158 33.8809 46.0248C33.7548 45.6 33.7585 45.5855 34.0304 45.4471C34.163 45.3796 34.4523 45.1431 34.6734 44.9215C35.1564 44.4376 35.4078 43.9533 35.5252 43.2806C35.623 42.7204 35.6356 42.8209 35.0357 39.3461C34.7868 37.9043 34.5832 36.6989 34.5832 36.6675C34.5832 36.5919 34.8301 36.554 31.4652 37.1454Z" fill="#2C2B46"/>
</svg>
