<svg width="72" height="72" viewBox="0 0 72 72" fill="none" xmlns="http://www.w3.org/2000/svg">
<circle cx="36" cy="36" r="36" fill="#FFD88D"/>
<path opacity="0.4" fill-rule="evenodd" clip-rule="evenodd" d="M23.8216 20.0093C23.5005 20.172 23.3067 20.4926 23.3067 20.861C23.3067 21.2294 23.5005 21.55 23.8216 21.7127C24.0274 21.8171 24.2933 21.8247 27.2018 21.8091C30.2765 21.7926 30.3633 21.7887 30.5359 21.6598C30.8541 21.422 30.9704 21.2082 30.9704 20.861C30.9704 20.5138 30.8541 20.3 30.5359 20.0623C30.3633 19.9333 30.2765 19.9294 27.2018 19.913C24.2933 19.8973 24.0274 19.9049 23.8216 20.0093ZM48.9209 20.0066C48.7981 20.0704 48.6319 20.2207 48.5518 20.3407C48.425 20.5307 48.4061 20.6407 48.4061 21.1916V21.8243L47.8123 21.8244C47.1238 21.8245 46.8546 21.925 46.626 22.2673C46.3207 22.7246 46.4996 23.3893 46.9952 23.6383C47.1596 23.7211 47.3752 23.7507 47.8123 23.7507L48.4061 23.7509V24.3835C48.4061 24.9344 48.425 25.0445 48.5518 25.2344C48.9425 25.8195 49.7176 25.8059 50.1653 25.2061C50.27 25.0657 50.3004 24.908 50.3208 24.3971L50.3463 23.7624L50.9765 23.7406C51.4908 23.7228 51.6393 23.6944 51.7838 23.5863C52.1019 23.3485 52.2182 23.1347 52.2182 22.7876C52.2182 22.4404 52.1019 22.2267 51.7838 21.9888C51.6393 21.8807 51.4908 21.8524 50.9765 21.8346L50.3463 21.8127L50.3208 21.1781C50.2936 20.4999 50.228 20.3387 49.8698 20.0713C49.6324 19.8939 49.1956 19.8641 48.9209 20.0066ZM19.9058 23.8624C19.5848 24.0251 19.391 24.3457 19.391 24.7141C19.391 25.0826 19.5848 25.4031 19.9058 25.5659C20.1117 25.6702 20.3791 25.6778 23.3182 25.6622C26.4252 25.6458 26.5116 25.6419 26.6843 25.5129C27.0025 25.2752 27.1188 25.0614 27.1188 24.7141C27.1188 24.3669 27.0025 24.1531 26.6843 23.9154C26.5116 23.7864 26.4252 23.7825 23.3182 23.7661C20.3791 23.7505 20.1117 23.758 19.9058 23.8624ZM43.0794 47.1069C42.9565 47.1707 42.7904 47.321 42.7103 47.441C42.5835 47.631 42.5646 47.7411 42.5646 48.2919V48.9246L41.9708 48.9247C41.2823 48.9248 41.013 49.0253 40.7845 49.3676C40.4791 49.8249 40.6581 50.4896 41.1536 50.7387C41.3181 50.8214 41.5336 50.851 41.9708 50.851L42.5646 50.8512V51.4839C42.5646 52.0347 42.5835 52.1448 42.7103 52.3348C43.101 52.9198 43.8761 52.9062 44.3237 52.3064C44.4285 52.166 44.4588 52.0083 44.4793 51.4974L44.5048 50.8627L45.135 50.8409C45.6492 50.8231 45.7978 50.7947 45.9423 50.6866C46.2604 50.4488 46.3767 50.2351 46.3767 49.8879C46.3767 49.5407 46.2604 49.327 45.9423 49.0891C45.7978 48.9811 45.6492 48.9527 45.135 48.9349L44.5048 48.913L44.4793 48.2784C44.4521 47.6002 44.3864 47.439 44.0283 47.1716C43.7908 46.9942 43.3541 46.9645 43.0794 47.1069Z" fill="#2C2B46"/>
<path fill-rule="evenodd" clip-rule="evenodd" d="M36.2414 21.4203C35.4087 21.533 34.2524 21.9829 33.4973 22.488C32.7075 23.0163 29.3263 26.4356 28.9882 27.0477C28.5921 27.7651 28.4323 28.3567 28.3956 29.2419L28.3636 30.0125L31.0507 27.3438C33.8973 24.5169 34.009 24.4238 34.8569 24.1747C35.3096 24.0417 36.2103 24.0417 36.663 24.1747C37.5747 24.4426 38.3596 25.1001 38.7666 25.9366L39.0023 26.4214L39.4514 26.2658C40.0893 26.0449 40.9392 26.0462 41.576 26.2692C43.5091 26.9462 44.3797 28.9585 43.5706 30.8794C43.5403 30.9513 43.6561 31.0354 44.0261 31.2105C45.6507 31.9792 46.3453 33.9116 45.618 35.6389C45.5839 35.7201 45.6815 35.7933 46.0693 35.9776C46.6699 36.2629 47.3197 36.8897 47.587 37.4415C48.0913 38.4828 48.0806 39.5978 47.5564 40.6034C47.3934 40.9161 46.9529 41.3972 45.3438 43.0199C44.2388 44.1341 43.3347 45.0699 43.3347 45.0993C43.3347 45.1287 43.7175 45.1388 44.1853 45.1217C44.8858 45.0961 45.1264 45.06 45.5494 44.9169C46.5306 44.5851 46.8078 44.3709 48.748 42.4456C50.6664 40.5417 51.0113 40.139 51.4487 39.2921C52.3785 37.4919 52.4423 35.2298 51.6148 33.4039C51.1089 32.2879 51.1042 32.2826 46.2618 27.4232C41.2922 22.4362 41.2206 22.3726 40.0256 21.8843C39.1283 21.5176 38.3361 21.3729 37.2905 21.3847C36.8194 21.39 36.3473 21.406 36.2414 21.4203ZM35.1426 26.1139C35.0325 26.1742 32.7216 28.4277 30.0071 31.1216C25.2969 35.7963 25.0698 36.0115 25.0275 35.8417C25.0031 35.7438 24.9098 34.3344 24.8202 32.7097L24.6573 29.7556L24.4473 29.3406C23.8421 28.1443 22.2353 27.9153 21.3472 28.8987C20.9576 29.3302 20.8812 29.5841 20.7697 30.8207C20.5831 32.8895 20.459 33.9143 19.9349 37.7187C19.4377 41.3272 19.4272 41.4403 19.425 43.2094C19.4232 44.5732 19.4432 44.9436 19.5441 45.425C19.908 47.1605 20.6879 48.5479 22.0829 49.941C23.4382 51.2944 25.0891 52.1796 27.0297 52.5935C27.9125 52.7818 29.6965 52.8008 30.6068 52.6317C31.8933 52.3928 33.1943 51.8654 34.3109 51.1304C34.8966 50.7447 35.4669 50.1961 40.3652 45.3051C43.5126 42.1627 45.8187 39.811 45.8823 39.6792C45.9424 39.5546 46.0029 39.2792 46.0168 39.0673C46.0676 38.2919 45.4989 37.6366 44.7192 37.5719C44.0674 37.5179 44.0629 37.5212 41.762 39.8083C39.4855 42.0711 39.4927 42.0656 38.944 41.9626C38.3345 41.8483 38.0248 41.1634 38.3233 40.5899C38.3915 40.4589 39.6366 39.1669 41.0902 37.7187C42.8465 35.9689 43.7734 34.9996 43.8534 34.8289C44.0993 34.3043 43.9642 33.5659 43.5514 33.1787C43.1653 32.8164 42.4978 32.6987 42.0007 32.9051C41.8383 32.9725 40.8799 33.8842 39.0017 35.7579C36.5882 38.1655 36.2112 38.5171 36.0007 38.5558C35.2424 38.695 34.6881 38.1406 34.8268 37.3816C34.8655 37.1699 35.2847 36.7253 38.2937 33.7051C40.1764 31.8154 41.7588 30.1827 41.8104 30.0767C41.9588 29.7717 41.9898 29.4882 41.9143 29.1272C41.8566 28.8519 41.7842 28.7337 41.507 28.4624C41.0118 27.9779 40.4593 27.8851 39.8683 28.1872C39.7447 28.2504 38.156 29.7942 36.3377 31.618C34.5194 33.4417 32.9246 34.9897 32.7936 35.058C32.2205 35.3567 31.5358 35.0469 31.4215 34.4371C31.3163 33.8761 31.2555 33.9514 34.2215 30.9758C36.0945 29.0968 37.0058 28.1381 37.0732 27.9756C37.3698 27.2606 37.0224 26.3905 36.3237 26.0985C36.0067 25.9661 35.3979 25.974 35.1426 26.1139Z" fill="#2C2B46"/>
</svg>
