<svg width="72" height="72" viewBox="0 0 72 72" fill="none" xmlns="http://www.w3.org/2000/svg">
<circle cx="36" cy="36" r="36" fill="#FB9B9B"/>
<path fill-rule="evenodd" clip-rule="evenodd" d="M30.5244 21.9825C30.2866 22.0925 30.0734 22.3191 29.9831 22.5577C29.9388 22.6747 29.9146 23.6321 29.9146 25.2678V27.7972L28.3143 27.8164C26.5536 27.8375 26.5564 27.8368 26.2275 28.2777C26.0997 28.4489 26.0951 28.5328 26.0951 30.6933C26.0951 32.8537 26.0997 32.9377 26.2275 33.1089C26.5075 33.4841 26.6647 33.5493 27.3459 33.5729L27.9779 33.5948L28.006 36.5591C28.0322 39.3027 28.0446 39.57 28.1733 40.1491C28.5573 41.8782 29.3126 43.2585 30.5552 44.5016C31.5648 45.5116 32.6384 46.1823 33.9373 46.6143C34.495 46.7999 35.3762 47.0049 35.6162 47.0049C35.7191 47.0049 35.7512 47.084 35.8185 47.5026C36.0206 48.76 36.6712 50.2781 37.4518 51.3134C38.9716 53.3292 41.3373 54.5981 43.8642 54.7528C44.4201 54.7869 44.5634 54.7753 44.7639 54.6801C45.4167 54.3702 45.5033 53.4457 44.9186 53.0292C44.7653 52.92 44.5804 52.88 44.0347 52.8375C41.5111 52.6413 39.4171 51.2615 38.3506 49.092C38.0695 48.5201 37.6819 47.3476 37.6819 47.069C37.6819 47.0427 37.9374 46.9744 38.2497 46.9173C39.9245 46.6107 41.4012 45.8397 42.6672 44.6108C44.0735 43.2459 44.9398 41.5788 45.2274 39.6839C45.2971 39.2251 45.3202 38.3949 45.3204 36.3343L45.3208 33.5948L45.9788 33.5729C46.5351 33.5544 46.6678 33.5289 46.8375 33.4078C47.2356 33.1237 47.2466 33.0508 47.2466 30.6933C47.2466 28.3358 47.2356 28.2629 46.8375 27.9788C46.6445 27.8411 46.5741 27.8348 45.0159 27.8164L43.395 27.7973V25.2253C43.395 22.3826 43.3922 22.3606 42.9859 22.0706C42.8404 21.9668 42.6939 21.9274 42.4529 21.9274C42.0939 21.9274 41.876 22.045 41.6337 22.3695C41.5059 22.5408 41.5007 22.6354 41.4833 25.1751L41.4652 27.8035H36.6528H31.8403V25.2283C31.8403 22.3922 31.8362 22.3594 31.4414 22.0782C31.2043 21.9093 30.7786 21.8648 30.5244 21.9825ZM37.0797 33.6874C37.4786 33.8767 37.7036 34.3881 37.589 34.8448C37.5642 34.9435 37.2865 35.2856 36.9643 35.6143L36.3842 36.2061L37.7995 36.9185C39.2631 37.6552 39.443 37.7875 39.5168 38.1813C39.6126 38.6919 39.5426 38.802 38.3664 39.9927C37.7604 40.6061 37.1866 41.1488 37.0913 41.1987C36.5418 41.4862 35.7996 41.0624 35.7123 40.4113C35.6647 40.0564 35.8 39.8217 36.4182 39.1865C36.7017 38.8954 36.9215 38.6461 36.9066 38.6326C36.8917 38.6192 36.2393 38.2866 35.4568 37.8936C34.0802 37.2023 34.0299 37.1702 33.9002 36.9022C33.6128 36.3082 33.7457 36.0646 35.0724 34.7525C35.6497 34.1817 36.1913 33.6869 36.2761 33.6529C36.5125 33.5583 36.837 33.5722 37.0797 33.6874Z" fill="#2C2B46"/>
</svg>
