<svg width="72" height="72" viewBox="0 0 72 72" fill="none" xmlns="http://www.w3.org/2000/svg">
<circle cx="36" cy="36" r="36" fill="#F8B0ED"/>
<path fill-rule="evenodd" clip-rule="evenodd" d="M19.8314 24.747C19.7133 24.8266 19.5574 24.9927 19.4849 25.1162C19.3535 25.3401 19.353 25.3723 19.353 34.9415C19.353 44.4284 19.3546 44.5447 19.4814 44.7554C19.6393 45.0176 19.9222 45.1983 20.2195 45.227L20.444 45.2486L20.4878 44.8074C20.5755 43.9219 20.8175 43.2259 21.2937 42.4895C21.8008 41.7053 22.4955 41.1058 23.3815 40.6878C24.0161 40.3884 24.5005 40.2696 25.2614 40.2267C26.7376 40.1435 28.1254 40.7037 29.1526 41.7974C29.9211 42.6156 30.3432 43.5106 30.5075 44.6707L30.5894 45.2486H34.5038H38.4183L38.435 35.4874C38.4464 28.8511 38.4302 25.6213 38.3843 25.3985C38.3167 25.0702 38.133 24.8307 37.8287 24.6743C37.7271 24.6221 35.2623 24.6023 28.8673 24.6023H20.0461L19.8314 24.747ZM29.1818 27.4949C29.4066 27.5804 35.051 31.1093 35.305 31.3231C35.6697 31.6301 35.7148 32.2452 35.3999 32.6194C35.1851 32.8748 34.9168 32.973 34.5338 32.9362L34.2137 32.9054V35.1462C34.2137 37.2652 34.2067 37.4007 34.0844 37.6404C34.0012 37.8035 33.8649 37.94 33.7018 38.0232C33.4549 38.1492 33.332 38.1525 28.8809 38.1525C24.3475 38.1525 24.3115 38.1514 24.0715 38.0164C23.9384 37.9416 23.7684 37.7716 23.6936 37.6384C23.5623 37.4048 23.5577 37.3191 23.5577 35.1534V32.9104L23.1885 32.9363C22.8806 32.9578 22.7822 32.937 22.5948 32.8107C22.1515 32.5119 22.0222 31.888 22.3196 31.4824C22.4376 31.3214 27.9292 27.8129 28.4684 27.554C28.7613 27.4134 28.9307 27.3994 29.1818 27.4949ZM41.5156 37.3656L40.3762 37.3848V41.336V45.2872L40.7449 45.2679L41.1137 45.2486L41.1626 44.8954C41.365 43.4371 41.8312 42.4654 42.7402 41.6075C43.7877 40.6189 45.0487 40.1483 46.4397 40.2267C47.2522 40.2725 47.7044 40.3911 48.4323 40.7495C49.9968 41.5196 51.0777 43.0617 51.2043 44.7044C51.2421 45.1942 51.2506 45.2165 51.4009 45.2165C51.6295 45.2165 51.9192 45.0246 52.0797 44.767C52.2087 44.5598 52.2215 44.4443 52.2415 43.29C52.288 40.6161 52.019 39.652 50.9213 38.5577C50.3498 37.9881 49.5421 37.5593 48.7637 37.4125C48.2744 37.3202 45.3514 37.3013 41.5156 37.3656ZM24.7203 42.2355C23.6514 42.5231 22.7774 43.4018 22.4896 44.478C22.4424 44.6546 22.4037 45.0014 22.4037 45.2486C22.4037 47.5915 24.9155 49.0955 26.9871 47.993C27.4615 47.7406 28.0657 47.1051 28.3017 46.6102C28.8755 45.4075 28.6427 44.019 27.7082 43.0704C26.9203 42.2706 25.7772 41.9512 24.7203 42.2355ZM45.4689 42.2254C43.9304 42.5986 42.8586 44.1997 43.13 45.719C43.574 48.2046 46.5088 49.2212 48.3129 47.5143C48.9952 46.8687 49.299 46.1707 49.299 45.2486C49.299 44.3265 48.9952 43.6285 48.3129 42.983C47.5555 42.2664 46.4804 41.98 45.4689 42.2254Z" fill="#2C2B46"/>
<path opacity="0.4" fill-rule="evenodd" clip-rule="evenodd" d="M40.3762 32.6075V35.4756L42.0235 35.4331C42.9295 35.4098 44.6024 35.3908 45.741 35.3908H47.8112L46.9101 33.4481C46.4145 32.3797 45.9277 31.3871 45.8281 31.2423C45.5518 30.8404 44.9751 30.3455 44.531 30.1294C43.8216 29.7841 43.5172 29.7395 41.8712 29.7395H40.3762V32.6075Z" fill="#2C2B46"/>
<path opacity="0.4" fill-rule="evenodd" clip-rule="evenodd" d="M27.1686 30.6152L25.4836 31.6772V33.9515V36.2257H28.8866H32.2896L32.2728 33.9363L32.2559 31.6469L30.5869 30.5991C29.669 30.0228 28.9035 29.5517 28.8858 29.5522C28.8681 29.5528 28.0955 30.0311 27.1686 30.6152Z" fill="#2C2B46"/>
</svg>
