<svg width="234" height="123" viewBox="0 0 234 123" fill="none" xmlns="http://www.w3.org/2000/svg">
<path d="M12.165 112.736C9.84727 112.736 7.78642 112.222 5.98243 111.195C4.19038 110.167 2.79258 108.728 1.78904 106.876C0.785492 105.024 0.283719 102.903 0.283719 100.514C0.283719 98.1126 0.779519 95.992 1.77112 94.1522C2.76272 92.3004 4.16051 90.8608 5.96451 89.8334C7.78045 88.8059 9.84727 88.2922 12.165 88.2922C14.0048 88.2922 15.7013 88.6088 17.2544 89.242C18.8075 89.8752 20.1037 90.7832 21.1431 91.9659C22.1825 93.1367 22.8754 94.5046 23.2219 96.0697H19.6916C19.2495 94.648 18.3356 93.4892 16.9497 92.5931C15.5758 91.6971 13.957 91.2491 12.0933 91.2491C10.4327 91.2491 8.95722 91.6374 7.66695 92.4139C6.38862 93.1905 5.39105 94.2777 4.67423 95.6755C3.96936 97.0613 3.61692 98.6861 3.61692 100.55C3.61692 102.414 3.96936 104.044 4.67423 105.442C5.39105 106.828 6.38862 107.897 7.66695 108.65C8.95722 109.391 10.4327 109.761 12.0933 109.761C13.9331 109.761 15.54 109.325 16.9139 108.453C18.2998 107.581 19.2256 106.41 19.6916 104.94H23.2219C22.8993 106.481 22.2243 107.843 21.1969 109.026C20.1695 110.197 18.8732 111.111 17.3082 111.768C15.7431 112.413 14.0287 112.736 12.165 112.736ZM24.3789 104.206C24.3789 102.593 24.7432 101.141 25.472 99.8509C26.2127 98.5487 27.2402 97.5213 28.5543 96.7686C29.8804 96.004 31.3858 95.6217 33.0703 95.6217C34.7548 95.6217 36.2661 96.004 37.6042 96.7686C38.9422 97.5213 39.9756 98.5487 40.7044 99.8509C41.4451 101.141 41.8155 102.593 41.8155 104.206C41.8155 105.795 41.4391 107.24 40.6865 108.542C39.9458 109.845 38.9123 110.872 37.5862 111.625C36.2721 112.365 34.7667 112.736 33.0703 112.736C31.4096 112.736 29.9163 112.365 28.5902 111.625C27.276 110.872 26.2426 109.851 25.4899 108.56C24.7492 107.258 24.3789 105.806 24.3789 104.206ZM27.5329 104.206C27.5329 105.878 28.0525 107.264 29.0919 108.363C30.1313 109.462 31.4574 110.012 33.0703 110.012C34.7309 110.012 36.0809 109.462 37.1203 108.363C38.1716 107.264 38.6973 105.878 38.6973 104.206C38.6973 102.521 38.1776 101.123 37.1382 100.012C36.0988 98.9011 34.7429 98.3456 33.0703 98.3456C31.4574 98.3456 30.1313 98.9011 29.0919 100.012C28.0525 101.123 27.5329 102.521 27.5329 104.206ZM62.7566 95.6217C64.465 95.6217 65.8509 96.1414 66.9141 97.1808C67.9894 98.2202 68.527 99.6956 68.527 101.607V112.324H65.5163V102.27C65.5163 100.92 65.1998 99.9166 64.5666 99.2595C63.9453 98.6025 63.0851 98.2739 61.986 98.2739C60.7913 98.2739 59.8415 98.6801 59.1367 99.4925C58.4437 100.293 58.0973 101.267 58.0973 102.414V112.324H55.0866V102.27C55.0866 101.028 54.77 100.054 54.1369 99.3491C53.5037 98.6323 52.6196 98.2739 51.4846 98.2739C50.3377 98.2739 49.4118 98.6801 48.707 99.4925C48.014 100.293 47.6676 101.255 47.6676 102.378V112.324H44.6211V96.1055H47.345L47.56 98.1664C48.026 97.3779 48.6771 96.7567 49.5134 96.3027C50.3616 95.8487 51.2875 95.6217 52.291 95.6217C53.5096 95.6217 54.5849 95.9204 55.5167 96.5177C56.4486 97.1031 57.1117 97.8916 57.5059 98.8832C57.9479 97.8558 58.6349 97.0553 59.5668 96.4819C60.4986 95.9084 61.5619 95.6217 62.7566 95.6217ZM90.5075 95.6217C92.2159 95.6217 93.6018 96.1414 94.6651 97.1808C95.7403 98.2202 96.2779 99.6956 96.2779 101.607V112.324H93.2673V102.27C93.2673 100.92 92.9507 99.9166 92.3175 99.2595C91.6962 98.6025 90.836 98.2739 89.7369 98.2739C88.5422 98.2739 87.5924 98.6801 86.8876 99.4925C86.1946 100.293 85.8482 101.267 85.8482 102.414V112.324H82.8375V102.27C82.8375 101.028 82.521 100.054 81.8878 99.3491C81.2546 98.6323 80.3705 98.2739 79.2355 98.2739C78.0886 98.2739 77.1627 98.6801 76.4579 99.4925C75.7649 100.293 75.4185 101.255 75.4185 102.378V112.324H72.372V96.1055H75.0959L75.311 98.1664C75.7769 97.3779 76.428 96.7567 77.2643 96.3027C78.1125 95.8487 79.0384 95.6217 80.042 95.6217C81.2605 95.6217 82.3358 95.9204 83.2676 96.5177C84.1995 97.1031 84.8626 97.8916 85.2568 98.8832C85.6988 97.8558 86.3858 97.0553 87.3177 96.4819C88.2495 95.9084 89.3128 95.6217 90.5075 95.6217ZM113.671 96.1055V112.288H111.18L110.893 109.94C110.379 110.872 109.669 111.571 108.761 112.037C107.853 112.503 106.813 112.736 105.642 112.736C103.755 112.736 102.291 112.174 101.252 111.051C100.213 109.916 99.6928 108.393 99.6928 106.481V96.1055H102.739V105.908C102.739 107.401 103.074 108.465 103.743 109.098C104.424 109.731 105.374 110.048 106.592 110.048C107.811 110.048 108.784 109.63 109.513 108.793C110.254 107.945 110.624 106.822 110.624 105.424V96.1055H113.671ZM125.67 95.6217C127.509 95.6217 128.979 96.2071 130.078 97.3779C131.177 98.5368 131.727 100.168 131.727 102.27V112.288H128.644V102.969C128.644 99.9107 127.408 98.3814 124.935 98.3814C123.585 98.3814 122.516 98.7876 121.727 99.6C120.951 100.4 120.562 101.434 120.562 102.7V112.252H117.516V96.1055H120.06L120.347 98.3814C120.837 97.5452 121.566 96.8761 122.534 96.3744C123.501 95.8726 124.547 95.6217 125.67 95.6217ZM139.371 89.9051C139.371 90.5144 139.162 91.04 138.744 91.4821C138.337 91.9241 137.8 92.1451 137.131 92.1451C136.498 92.1451 135.966 91.9301 135.536 91.5C135.106 91.0699 134.891 90.5383 134.891 89.9051C134.891 89.2958 135.106 88.782 135.536 88.3639C135.966 87.9458 136.498 87.7367 137.131 87.7367C137.788 87.7367 138.326 87.9458 138.744 88.3639C139.162 88.782 139.371 89.2958 139.371 89.9051ZM167.165 96.1055L159.746 115.442C159.185 116.863 158.456 117.945 157.56 118.685C156.664 119.438 155.457 119.814 153.94 119.814C153.104 119.814 152.25 119.689 151.378 119.438L151.413 116.947C151.485 116.971 151.718 117.019 152.112 117.09C152.507 117.162 152.949 117.198 153.438 117.198C154.49 117.198 155.26 116.995 155.75 116.589C156.24 116.194 156.652 115.555 156.987 114.671L157.542 113.166L151.664 98.6323H147.704V112.288H144.657V98.6323H138.672V112.288H135.625V96.1055H144.657V91.8046H147.704V96.1055H153.904L158.976 109.349L163.922 96.1055H167.165ZM177.024 88.7582H180.214V99.0087H191.952V88.7582H195.141V112.288H191.952V101.75H180.214V112.288H177.024V88.7582ZM213.036 96.1055V112.288H210.545L210.258 109.94C209.745 110.872 209.034 111.571 208.126 112.037C207.218 112.503 206.179 112.736 205.008 112.736C203.12 112.736 201.657 112.174 200.617 111.051C199.578 109.916 199.058 108.393 199.058 106.481V96.1055H202.105V105.908C202.105 107.401 202.439 108.465 203.108 109.098C203.789 109.731 204.739 110.048 205.958 110.048C207.176 110.048 208.15 109.63 208.879 108.793C209.619 107.945 209.99 106.822 209.99 105.424V96.1055H213.036ZM225.806 95.6217C227.323 95.6217 228.673 95.9801 229.856 96.6969C231.05 97.4018 231.982 98.4053 232.651 99.7076C233.32 100.998 233.655 102.485 233.655 104.17C233.655 105.854 233.326 107.348 232.669 108.65C232.012 109.952 231.086 110.962 229.891 111.678C228.709 112.383 227.359 112.736 225.841 112.736C224.444 112.736 223.201 112.437 222.114 111.84C221.027 111.23 220.202 110.412 219.641 109.385L219.39 112.288H216.881V87.1095H219.856V98.5248C220.417 97.6168 221.224 96.906 222.275 96.3923C223.327 95.8786 224.503 95.6217 225.806 95.6217ZM225.322 109.976C226.887 109.976 228.153 109.444 229.121 108.381C230.089 107.318 230.572 105.914 230.572 104.17C230.572 102.437 230.089 101.04 229.121 99.9764C228.153 98.9131 226.875 98.3814 225.286 98.3814C223.697 98.3814 222.431 98.8952 221.487 99.9226C220.555 100.95 220.089 102.342 220.089 104.098C220.089 105.89 220.561 107.318 221.505 108.381C222.46 109.444 223.733 109.976 225.322 109.976Z" fill="white"/>
<path d="M151.988 36.1561V36.8719C151.988 39.4286 151.681 41.7808 151.272 44.2352L116.501 9.46426L107.297 0.464722H116.296C136.034 0.464722 151.988 16.4184 151.988 36.1561Z" fill="white"/>
<path opacity="0.7" d="M116.5 9.46423L81.0137 45.7692V4.24859C81.0137 2.10097 82.7522 0.362427 84.8998 0.362427H107.399L116.5 9.46423Z" fill="white"/>
<path d="M146.567 50.3713C147.794 51.5985 147.999 53.4393 147.181 54.9733C146.363 56.4051 145.34 57.8368 144.317 59.1663C137.772 67.3477 127.648 72.6656 116.398 72.6656H84.7976C82.7522 72.6656 81.0137 71.0293 81.0137 68.8817V58.0413C81.0137 57.0187 81.4227 56.0983 82.0363 55.3824L88.3769 48.8373L116.5 20.2024L146.567 50.3713Z" fill="white"/>
</svg>
