<svg width="59" height="59" viewBox="0 0 59 59" fill="none" xmlns="http://www.w3.org/2000/svg">
<rect x="0.5" y="0.5" width="58" height="58" rx="29" fill="#FAFAFA"/>
<rect x="0.5" y="0.5" width="58" height="58" rx="29" stroke="#ECECEC"/>
<path d="M31.2929 35.7929C30.9024 36.1834 30.9024 36.8166 31.2929 37.2071C31.6834 37.5976 32.3166 37.5976 32.7071 37.2071L38.5 31.4142C39.281 30.6332 39.281 29.3668 38.5 28.5858L32.7071 22.7929C32.3166 22.4024 31.6834 22.4024 31.2929 22.7929C30.9024 23.1834 30.9024 23.8166 31.2929 24.2071L36.0858 29H22C21.4477 29 21 29.4477 21 30C21 30.5523 21.4477 31 22 31H36.0858L31.2929 35.7929Z" fill="#6F767E"/>
</svg>
